<svg width="1080" height="1080" xmlns="http://www.w3.org/2000/svg" xml:space="preserve" version="1.1">
 <desc>Created with Fabric.js 5.2.4</desc>

 <g>
  <title>Layer 1</title>
  <g id="c7e6b24b-b48c-4403-893e-d93470b6121c" transform="matrix(1 0 0 1 540 540)">
   <rect id="svg_1" fill-rule=" nonzero" fill=" rgb(255,255,255)" stroke-miterlimit="4" stroke-linejoin=" miter" stroke-dashoffset="0" stroke-linecap=" butt" stroke-dasharray=" none" stroke=" none" height="1080" width="1080" y="-535.45455" x="-543.27273" vector-effect="non-scaling-stroke"/>
  </g>
  <g id="ce728145-3ee1-4429-b296-881f165a8237" transform="matrix(1 0 0 1 540 540)"/>
  <g stroke-linejoin=" miter" stroke-linecap=" butt" stroke-dasharray=" none" stroke=" none" fill=" rgb(0,0,0)" id="svg_2" transform="matrix(7.85453 0 0 8.60196 581.72 467.068)">
   <path id="svg_3" fill-rule=" nonzero" fill="#e50914" stroke-miterlimit="4" stroke-linejoin=" miter" stroke-dashoffset="0" stroke-dasharray=" none" stroke-linecap=" butt" d="m44.69342,2.87996l5.93683,15.71937c-1.74993,-0.25026 -3.49893,-0.56331 -5.28072,-0.8445l-3.34427,-8.68685l-3.43706,7.96888c-1.68713,-0.28119 -3.34427,-0.37586 -5.0314,-0.59425l6.03149,-13.75011l-5.46911,-14.09317l5.06326,0l3.06215,7.87422l3.28147,-7.87422l5.12419,0l-5.93683,14.28063zm-14.59368,-14.28063l-4.59369,0l0,27.24998c1.49968,0.09373 3.06215,0.15559 4.59369,0.34305l0,-27.59303zm-8.56313,26.93692c-4.1869,-0.28119 -8.37473,-0.53051 -12.65536,-0.62518l0,-26.31174l4.68648,0l0,21.87459c2.68816,0.0628 5.37539,0.28119 7.96888,0.40585l0,4.65648zm-17.65582,-16.28081l0,4.68741l-6.40548,0l0,10.65611l-4.62555,0l0,-25.99963l13.12494,0l0,4.68741l-8.49939,0l0,5.9687l6.40548,0zm-18.90618,-5.9687l0,21.56247c-1.56247,0 -3.15587,0 -4.68741,0.06186l0,-21.62433l-4.84394,0l0,-4.68741l14.40622,0l0,4.68741l-4.87487,0zm-14.59368,10.90543c-2.06205,0 -4.49996,0 -6.24989,0.09467l0,6.96878c2.75003,-0.18839 5.50005,-0.40678 8.281,-0.50051l0,4.49995l-12.96841,1.03196l0,-27.68769l12.96841,0l0,4.68741l-8.281,0l0,6.31175c1.81273,0 4.59369,-0.09373 6.24989,-0.09373l0,4.68741zm-25.9687,-2.62443l0,16.37455c-1.68713,0.18839 -3.18774,0.40678 -4.78114,0.65704l0,-30l4.46902,0l6.09336,17.03159l0,-17.03159l4.68741,0l0,28.06167c-1.6562,0.28213 -3.34333,0.37586 -5.12513,0.62518l-5.34352,-15.71844z"/>
  </g>
 </g>
</svg>